{
	"asset":{
		"version":"2.0",
		"generator":"Houdini GLTF 2.0 Exporter"
	},
	"accessors":[
		{
			"bufferView":0,
			"componentType":5121,
			"count":54,
			"type":"SCALAR",
			"min":[0
			],
			"max":[11
			]
		},
		{
			"bufferView":1,
			"componentType":5126,
			"count":12,
			"type":"VEC3",
			"min":[-5.0999999,-0.099999994,-5.0999999
			],
			"max":[5.0999999,1,5.0999999
			]
		},
		{
			"bufferView":2,
			"componentType":5121,
			"count":54,
			"type":"SCALAR",
			"min":[0
			],
			"max":[11
			]
		},
		{
			"bufferView":3,
			"componentType":5126,
			"count":12,
			"type":"VEC3",
			"min":[-5.19999981,1.29999995,-5.19999981
			],
			"max":[5.19999981,2.5,5.19999981
			]
		}
	],
	"buffers":[
		{
			"uri":"node_levels_data.bin",
			"byteLength":400,
			"name":"main_buffer"
		}
	],
	"bufferViews":[
		{
			"buffer":0,
			"byteLength":54,
			"target":34963
		},
		{
			"buffer":0,
			"byteOffset":56,
			"byteLength":144,
			"target":34962
		},
		{
			"buffer":0,
			"byteOffset":200,
			"byteLength":54,
			"target":34963
		},
		{
			"buffer":0,
			"byteOffset":256,
			"byteLength":144,
			"target":34962
		}
	],
	"nodes":[
		{
			"children":[1
			],
			"name":"level1"
		},
		{
			"mesh":0
		},
		{
			"children":[3
			],
			"name":"level2"
		},
		{
			"matrix":[1,0,0,0,0,1,0,0,0,0,1,0,0,2,0,1
			],
			"mesh":1
		}
	],
	"meshes":[
		{
			"primitives":[
				{
					"attributes":{
						"POSITION":1
					},
					"indices":0
				}
			],
			"name":"merge1"
		},
		{
			"primitives":[
				{
					"attributes":{
						"POSITION":3
					},
					"indices":2
				}
			],
			"name":"merge1"
		}
	],
	"scenes":[
		{
			"nodes":[0,2
			],
			"name":"level1"
		}
	],
	"scene":0
}
